<svg width="2407" height="2465" viewBox="0 0 2407 2465" fill="none" xmlns="http://www.w3.org/2000/svg">
<g clip-path="url(#clip0_301_173)">
<g filter="url(#filter0_d_301_173)">
<path d="M440.312 174.5H451.281C458.469 174.5 463.104 176.573 465.188 180.719C465.958 182.281 466.344 183.833 466.344 185.375C466.344 186.917 466.177 188.146 465.844 189.062C465.531 189.958 465.104 190.781 464.562 191.531C463.542 192.948 462.188 194.156 460.5 195.156V195.281C463.625 196.177 465.927 197.75 467.406 200C468.531 201.708 469.094 203.604 469.094 205.688C469.094 207.771 468.677 209.573 467.844 211.094C467.031 212.615 465.896 213.885 464.438 214.906C461.458 216.969 457.479 218 452.5 218H440.312V174.5ZM452.469 193.469C455.823 193.469 458.083 192.146 459.25 189.5C459.646 188.562 459.844 187.521 459.844 186.375C459.844 185.208 459.698 184.208 459.406 183.375C459.115 182.521 458.646 181.792 458 181.188C456.625 179.896 454.552 179.25 451.781 179.25H446.562V193.469H452.469ZM462.594 205.812C462.594 200.75 459.552 198.219 453.469 198.219H446.562V213.25H452.5C457.083 213.25 460.177 211.865 461.781 209.094C462.323 208.156 462.594 207.062 462.594 205.812ZM508.49 210.094V185.75H514.74V218H509.115L508.552 214.594C505.469 217.198 502.063 218.5 498.334 218.5C494.375 218.5 491.573 217.406 489.927 215.219C488.219 212.99 487.365 209.146 487.365 203.688V185.75H493.615V203.375C493.615 207.229 494.167 209.854 495.271 211.25C496.25 212.5 498.115 213.125 500.865 213.125C503.636 213.125 506.177 212.115 508.49 210.094ZM539.949 189.281C541.761 187.885 543.792 186.865 546.042 186.219C548.313 185.573 550.292 185.25 551.98 185.25C553.667 185.25 554.97 185.292 555.886 185.375V171.5H562.105V218H556.511L556.261 214.281C554.99 215.969 553.063 217.219 550.48 218.031C549.48 218.344 548.459 218.5 547.417 218.5C546.397 218.5 545.386 218.396 544.386 218.188C543.386 217.979 542.386 217.635 541.386 217.156C540.407 216.656 539.47 216.01 538.574 215.219C537.678 214.406 536.876 213.417 536.167 212.25C534.667 209.688 533.917 206.656 533.917 203.156C533.917 199.656 534.47 196.823 535.574 194.656C536.699 192.469 538.157 190.677 539.949 189.281ZM543.73 193C542.667 194 541.845 195.292 541.261 196.875C540.699 198.438 540.417 200.344 540.417 202.594C540.417 204.823 540.688 206.667 541.23 208.125C541.772 209.562 542.449 210.688 543.261 211.5C544.699 212.958 546.428 213.688 548.449 213.688C551.053 213.688 553.209 212.729 554.917 210.812C555.355 210.333 555.667 209.906 555.855 209.531V190.312L555.23 190.25C554.272 190.125 553.126 190.062 551.792 190.062C550.48 190.062 549.074 190.302 547.574 190.781C546.074 191.24 544.792 191.979 543.73 193ZM600.97 230.312C599.158 230.771 596.824 231 593.97 231C591.137 231 589.064 230.792 587.751 230.375V224.812C589.397 225.521 591.408 225.875 593.783 225.875C596.178 225.896 597.939 225.74 599.064 225.406C600.189 225.073 601.074 224.531 601.72 223.781C602.887 222.427 603.47 219.979 603.47 216.438V214.781C601.887 216.365 599.803 217.469 597.22 218.094C596.178 218.344 595.137 218.469 594.095 218.469C593.053 218.469 592.033 218.354 591.033 218.125C590.053 217.896 589.074 217.531 588.095 217.031C587.116 216.51 586.178 215.844 585.283 215.031C584.387 214.198 583.595 213.167 582.908 211.938C581.366 209.271 580.595 205.99 580.595 202.094C580.553 198.49 581.595 195.323 583.72 192.594C585.553 190.219 588.074 188.375 591.283 187.062C594.199 185.854 597.355 185.25 600.751 185.25C604.147 185.25 607.137 185.417 609.72 185.75V216.438C609.72 224.229 606.803 228.854 600.97 230.312ZM603.47 190.312C602.137 190.146 600.824 190.062 599.533 190.062C598.241 190.062 596.793 190.302 595.189 190.781C593.585 191.26 592.178 191.99 590.97 192.969C588.324 195.115 587.001 198.156 587.001 202.094C587.001 206.365 588.033 209.479 590.095 211.438C591.637 212.917 593.522 213.656 595.751 213.656C598.439 213.656 600.699 212.708 602.533 210.812C602.97 210.333 603.283 209.906 603.47 209.531V190.312ZM645.241 218.5C633.45 218.5 627.554 212.74 627.554 201.219C627.554 196.26 629.189 192.292 632.46 189.312C635.397 186.604 638.752 185.25 642.522 185.25C646.627 185.25 649.835 186.625 652.147 189.375C654.293 191.938 655.366 195.365 655.366 199.656V202.094H634.054C634.054 207.99 636.46 211.594 641.272 212.906C642.418 213.219 644.179 213.375 646.554 213.375C648.95 213.375 651.293 213.052 653.585 212.406V217.688C651.293 218.229 648.512 218.5 645.241 218.5ZM649.116 197.5C649.116 195.5 648.564 193.812 647.46 192.438C646.168 190.854 644.387 190.062 642.116 190.062C639.72 190.062 637.772 190.823 636.272 192.344C634.897 193.76 634.21 195.479 634.21 197.5H649.116ZM684.075 213.062C684.762 213.312 685.804 213.438 687.2 213.438C688.596 213.438 689.762 213.271 690.7 212.938V217.938C690.262 218.042 689.627 218.104 688.794 218.125L686.825 218.188C686.387 218.188 686.054 218.188 685.825 218.188C681.804 218.188 678.835 216.875 676.919 214.25C675.377 212.125 674.606 209.312 674.606 205.812V190.531H669.981V187.594L674.606 185.75L676.106 177.75H680.856V185.75H690.856V190.531H680.856V205.781C680.856 209.865 681.929 212.292 684.075 213.062ZM752.555 213.062C753.242 213.312 754.284 213.438 755.68 213.438C757.076 213.438 758.242 213.271 759.18 212.938V217.938C758.742 218.042 758.107 218.104 757.274 218.125L755.305 218.188C754.867 218.188 754.534 218.188 754.305 218.188C750.284 218.188 747.315 216.875 745.399 214.25C743.857 212.125 743.086 209.312 743.086 205.812V190.531H738.461V187.594L743.086 185.75L744.586 177.75H749.336V185.75H759.336V190.531H749.336V205.781C749.336 209.865 750.409 212.292 752.555 213.062ZM798.389 191.469C797.243 191.135 795.868 190.969 794.264 190.969C792.68 190.969 791.378 191.135 790.357 191.469C789.337 191.781 788.441 192.167 787.67 192.625C786.253 193.458 785.222 194.396 784.576 195.438V218H778.326V185.75H784.326L784.576 190.219C786.139 188.26 788.42 186.792 791.42 185.812C792.503 185.438 793.743 185.25 795.139 185.25C796.535 185.25 797.618 185.354 798.389 185.562V191.469ZM816.254 212.25C815.566 211.062 815.014 209.667 814.598 208.062C814.202 206.458 814.004 204.365 814.004 201.781C814.004 199.198 814.556 196.823 815.66 194.656C816.785 192.469 818.243 190.677 820.035 189.281C823.514 186.594 827.837 185.25 833.004 185.25C835.691 185.25 837.723 185.312 839.098 185.438C839.098 185.438 840.108 185.542 842.129 185.75V218H836.504L836.254 214.281C835.004 215.948 833.098 217.188 830.535 218C829.556 218.312 828.545 218.469 827.504 218.469C826.483 218.469 825.473 218.365 824.473 218.156C823.473 217.948 822.473 217.604 821.473 217.125C820.493 216.646 819.556 216.01 818.66 215.219C817.764 214.406 816.962 213.417 816.254 212.25ZM835.879 190.344C834.545 190.177 833.212 190.094 831.879 190.094C830.566 190.094 829.16 190.333 827.66 190.812C826.16 191.271 824.879 192 823.816 193C821.608 195.083 820.504 198.26 820.504 202.531C820.504 206.573 821.452 209.562 823.348 211.5C824.785 212.938 826.514 213.656 828.535 213.656C831.139 213.656 833.285 212.708 834.973 210.812C835.389 210.333 835.691 209.906 835.879 209.531V190.344ZM885.525 217.906C884.275 218.302 882.108 218.5 879.025 218.5C875.942 218.5 873.317 218.125 871.15 217.375C869.004 216.625 867.171 215.521 865.65 214.062C862.504 211.042 860.931 206.854 860.931 201.5C860.931 196.312 862.817 192.229 866.587 189.25C869.962 186.583 874.108 185.25 879.025 185.25C882.067 185.25 884.15 185.354 885.275 185.562V191.125C883.525 190.562 881.525 190.281 879.275 190.281C877.046 190.281 875.192 190.594 873.712 191.219C872.233 191.823 871.025 192.646 870.087 193.688C868.317 195.667 867.431 198.271 867.431 201.5C867.431 206.958 869.4 210.594 873.337 212.406C874.733 213.052 876.098 213.375 877.431 213.375C878.765 213.375 879.785 213.344 880.494 213.281C881.223 213.219 881.91 213.135 882.556 213.031C883.931 212.802 884.921 212.562 885.525 212.312V217.906ZM905.015 171.531H911.265V200.188L924.327 185.75H931.765L917.859 200.375L932.484 218H924.859L911.265 201.562V218H905.015V171.531ZM954.068 176.375C954.068 177.562 953.672 178.479 952.88 179.125C952.109 179.75 951.14 180.062 949.974 180.062C948.807 180.062 947.838 179.75 947.068 179.125C946.318 178.479 945.943 177.562 945.943 176.375C945.943 175.167 946.318 174.25 947.068 173.625C947.838 173 948.807 172.688 949.974 172.688C951.14 172.688 952.109 173 952.88 173.625C953.672 174.25 954.068 175.167 954.068 176.375ZM946.755 185.75H953.005V218H946.755V185.75ZM987.62 190.625C984.516 190.625 981.755 191.677 979.339 193.781V218H973.089V185.75H978.87L979.307 189.25C982.703 186.583 986.214 185.25 989.839 185.25C993.672 185.25 996.485 186.396 998.276 188.688C1000.15 191.104 1001.09 195 1001.09 200.375V218H994.839V200.375C994.839 195.208 993.443 192.125 990.651 191.125C989.755 190.792 988.745 190.625 987.62 190.625ZM1039.05 230.312C1037.23 230.771 1034.9 231 1032.05 231C1029.21 231 1027.14 230.792 1025.83 230.375V224.812C1027.47 225.521 1029.48 225.875 1031.86 225.875C1034.26 225.896 1036.02 225.74 1037.14 225.406C1038.27 225.073 1039.15 224.531 1039.8 223.781C1040.96 222.427 1041.55 219.979 1041.55 216.438V214.781C1039.96 216.365 1037.88 217.469 1035.3 218.094C1034.26 218.344 1033.21 218.469 1032.17 218.469C1031.13 218.469 1030.11 218.354 1029.11 218.125C1028.13 217.896 1027.15 217.531 1026.17 217.031C1025.19 216.51 1024.26 215.844 1023.36 215.031C1022.46 214.198 1021.67 213.167 1020.98 211.938C1019.44 209.271 1018.67 205.99 1018.67 202.094C1018.63 198.49 1019.67 195.323 1021.8 192.594C1023.63 190.219 1026.15 188.375 1029.36 187.062C1032.28 185.854 1035.43 185.25 1038.83 185.25C1042.22 185.25 1045.21 185.417 1047.8 185.75V216.438C1047.8 224.229 1044.88 228.854 1039.05 230.312ZM1041.55 190.312C1040.21 190.146 1038.9 190.062 1037.61 190.062C1036.32 190.062 1034.87 190.302 1033.27 190.781C1031.66 191.26 1030.26 191.99 1029.05 192.969C1026.4 195.115 1025.08 198.156 1025.08 202.094C1025.08 206.365 1026.11 209.479 1028.17 211.438C1029.71 212.917 1031.6 213.656 1033.83 213.656C1036.52 213.656 1038.78 212.708 1040.61 210.812C1041.05 210.333 1041.36 209.906 1041.55 209.531V190.312Z" fill="white"/>
</g>
<g clip-path="url(#clip1_301_173)">
<rect width="2497" height="3640" transform="translate(-19 -1175)" fill="#3A718C"/>
<g filter="url(#filter1_f_301_173)">
<path fill-rule="evenodd" clip-rule="evenodd" d="M408.24 -676.126C494.53 -669.728 556.41 -607.493 623.568 -555.427C703.551 -493.418 834.839 -448.211 828.799 -350.079C822.736 -251.583 672.06 -238.013 599.689 -167.503C525.612 -95.33 513.826 51.8951 408.24 59.6678C303.188 67.4011 254.55 -61.6789 184.761 -136.958C122.157 -204.488 33.9702 -260.1 28.3793 -350.079C22.5905 -443.244 83.8678 -527.612 156.608 -590.047C225.462 -649.147 315.882 -682.973 408.24 -676.126Z" fill="#7D77F6"/>
</g>
<g filter="url(#filter2_f_301_173)">
<path fill-rule="evenodd" clip-rule="evenodd" d="M191.567 -337.122C265.933 -339.416 343.785 -367.996 406.048 -327.268C478.548 -279.843 538.584 -199.326 534.515 -112.788C530.53 -28.048 448.785 24.528 386.783 82.4276C328.069 137.256 271.827 204.025 191.567 207.465C109.051 211.001 35.5814 159.953 -21.13 99.9097C-76.0628 41.7492 -113.045 -32.8145 -110.912 -112.788C-108.829 -190.884 -72.8293 -267.896 -10.0793 -314.434C46.3989 -356.322 121.285 -334.955 191.567 -337.122Z" fill="#80E5E9"/>
</g>
<g filter="url(#filter3_f_301_173)">
<path fill-rule="evenodd" clip-rule="evenodd" d="M1053.12 -616.871C1112.32 -609.904 1178.98 -621.172 1220.55 -574.797C1261.86 -528.714 1253.31 -457.03 1254.09 -392.671C1254.9 -326.946 1261.14 -258.363 1225.07 -205.631C1184.11 -145.767 1120.98 -109.822 1053.12 -98.904C972.635 -85.9554 886.032 -86.814 821.492 -140.705C749.761 -200.6 696.463 -294.446 701.305 -392.671C705.998 -487.86 769.457 -570.803 845.069 -618.989C907.278 -658.632 981.442 -625.307 1053.12 -616.871Z" fill="#5EA3A6"/>
</g>
<g filter="url(#filter4_f_301_173)">
<path fill-rule="evenodd" clip-rule="evenodd" d="M820.094 -955.499C907.621 -961.15 1017.26 -989.518 1070.7 -919.97C1124.01 -850.594 1064.4 -753.373 1039.96 -669.363C1024.44 -616.012 995.848 -572.15 957.765 -531.692C917.914 -489.356 876.968 -447.856 820.094 -435.783C747.899 -420.457 662.183 -407.141 608.219 -457.489C553.659 -508.394 571.179 -594.757 569.739 -669.363C568.253 -746.369 549.165 -831.61 599.882 -889.575C652.333 -949.523 740.605 -950.368 820.094 -955.499Z" fill="#FEFF94"/>
</g>
<g filter="url(#filter5_f_301_173)">
<path fill-rule="evenodd" clip-rule="evenodd" d="M965.992 -363.263C1040.72 -358.756 1111.92 -348.719 1175 -307.957C1260.17 -252.916 1362.24 -197.534 1378.53 -96.6778C1396.13 12.271 1345.46 132.937 1256.58 197.075C1174.62 256.222 1065.77 214.823 965.992 201.02C886.114 189.969 806.748 179.191 745.364 126.352C678.433 68.7401 623.014 -7.86048 620.146 -96.6778C617.206 -187.734 658.807 -279.52 730.473 -334.761C795.834 -385.143 883.943 -368.21 965.992 -363.263Z" fill="#9995E5"/>
</g>
<g filter="url(#filter6_f_301_173)">
<path fill-rule="evenodd" clip-rule="evenodd" d="M915.571 -527.838C998.242 -523.344 1033.44 -424.732 1088.05 -362.506C1136.61 -307.181 1200.07 -262.654 1212.05 -190.024C1225.97 -105.578 1211.43 -14.7865 1156.15 50.5522C1096.96 120.516 1005.5 178.043 915.571 160.402C831.061 143.825 814.774 32.5655 753.898 -28.3513C693.066 -89.2242 572.802 -104.287 565.381 -190.024C557.945 -275.924 661.202 -322.48 723.255 -382.34C783.398 -440.357 832.129 -532.375 915.571 -527.838Z" fill="#793E71"/>
</g>
</g>
<g filter="url(#filter7_f_301_173)">
<path fill-rule="evenodd" clip-rule="evenodd" d="M1906.24 -1017.13C1992.53 -1010.73 2054.41 -948.493 2121.57 -896.427C2201.55 -834.418 2332.84 -789.211 2326.8 -691.079C2320.74 -592.583 2170.06 -579.013 2097.69 -508.503C2023.61 -436.33 2011.83 -289.105 1906.24 -281.332C1801.19 -273.599 1752.55 -402.679 1682.76 -477.958C1620.16 -545.488 1531.97 -601.1 1526.38 -691.079C1520.59 -784.244 1581.87 -868.612 1654.61 -931.047C1723.46 -990.147 1813.88 -1023.97 1906.24 -1017.13Z" fill="#7D77F6"/>
</g>
<g filter="url(#filter8_f_301_173)">
<path fill-rule="evenodd" clip-rule="evenodd" d="M1906.24 430.874C1992.53 437.272 2054.41 499.507 2121.57 551.573C2201.55 613.582 2332.84 658.789 2326.8 756.921C2320.74 855.417 2170.06 868.987 2097.69 939.497C2023.61 1011.67 2011.83 1158.9 1906.24 1166.67C1801.19 1174.4 1752.55 1045.32 1682.76 970.042C1620.16 902.512 1531.97 846.9 1526.38 756.921C1520.59 663.756 1581.87 579.388 1654.61 516.953C1723.46 457.853 1813.88 424.027 1906.24 430.874Z" fill="#7D77F6"/>
</g>
<g filter="url(#filter9_f_301_173)">
<path fill-rule="evenodd" clip-rule="evenodd" d="M1275.24 1362.87C1361.53 1369.27 1423.41 1431.51 1490.57 1483.57C1570.55 1545.58 1701.84 1590.79 1695.8 1688.92C1689.74 1787.42 1539.06 1800.99 1466.69 1871.5C1392.61 1943.67 1380.83 2090.9 1275.24 2098.67C1170.19 2106.4 1121.55 1977.32 1051.76 1902.04C989.157 1834.51 900.97 1778.9 895.379 1688.92C889.591 1595.76 950.868 1511.39 1023.61 1448.95C1092.46 1389.85 1182.88 1356.03 1275.24 1362.87Z" fill="#7D77F6"/>
</g>
<g filter="url(#filter10_f_301_173)">
<path fill-rule="evenodd" clip-rule="evenodd" d="M1689.57 -678.122C1763.93 -680.416 1841.79 -708.996 1904.05 -668.268C1976.55 -620.843 2036.58 -540.326 2032.51 -453.788C2028.53 -369.048 1946.79 -316.472 1884.78 -258.572C1826.07 -203.744 1769.83 -136.975 1689.57 -133.535C1607.05 -129.999 1533.58 -181.047 1476.87 -241.09C1421.94 -299.251 1384.95 -373.815 1387.09 -453.788C1389.17 -531.884 1425.17 -608.896 1487.92 -655.434C1544.4 -697.322 1619.28 -675.955 1689.57 -678.122Z" fill="#80E5E9"/>
</g>
<g filter="url(#filter11_f_301_173)">
<path fill-rule="evenodd" clip-rule="evenodd" d="M1689.57 769.878C1763.93 767.584 1841.79 739.004 1904.05 779.732C1976.55 827.157 2036.58 907.674 2032.51 994.212C2028.53 1078.95 1946.79 1131.53 1884.78 1189.43C1826.07 1244.26 1769.83 1311.03 1689.57 1314.47C1607.05 1318 1533.58 1266.95 1476.87 1206.91C1421.94 1148.75 1384.95 1074.19 1387.09 994.212C1389.17 916.116 1425.17 839.104 1487.92 792.566C1544.4 750.678 1619.28 772.045 1689.57 769.878Z" fill="#80E5E9"/>
</g>
<g filter="url(#filter12_f_301_173)">
<path fill-rule="evenodd" clip-rule="evenodd" d="M1058.57 1701.88C1132.93 1699.58 1210.79 1671 1273.05 1711.73C1345.55 1759.16 1405.58 1839.67 1401.51 1926.21C1397.53 2010.95 1315.79 2063.53 1253.78 2121.43C1195.07 2176.26 1138.83 2243.03 1058.57 2246.47C976.051 2250 902.581 2198.95 845.87 2138.91C790.937 2080.75 753.955 2006.19 756.088 1926.21C758.171 1848.12 794.171 1771.1 856.921 1724.57C913.399 1682.68 988.285 1704.05 1058.57 1701.88Z" fill="#80E5E9"/>
</g>
<g filter="url(#filter13_f_301_173)">
<path fill-rule="evenodd" clip-rule="evenodd" d="M2551.12 -957.871C2610.32 -950.904 2676.98 -962.172 2718.55 -915.797C2759.86 -869.714 2751.31 -798.03 2752.09 -733.671C2752.9 -667.946 2759.14 -599.363 2723.07 -546.631C2682.11 -486.767 2618.98 -450.822 2551.12 -439.904C2470.64 -426.955 2384.03 -427.814 2319.49 -481.705C2247.76 -541.6 2194.46 -635.446 2199.31 -733.671C2204 -828.86 2267.46 -911.803 2343.07 -959.989C2405.28 -999.632 2479.44 -966.307 2551.12 -957.871Z" fill="#5EA3A6"/>
</g>
<g filter="url(#filter14_f_301_173)">
<path fill-rule="evenodd" clip-rule="evenodd" d="M2551.12 490.129C2610.32 497.096 2676.98 485.828 2718.55 532.203C2759.86 578.286 2751.31 649.97 2752.09 714.329C2752.9 780.054 2759.14 848.637 2723.07 901.369C2682.11 961.233 2618.98 997.178 2551.12 1008.1C2470.64 1021.04 2384.03 1020.19 2319.49 966.295C2247.76 906.4 2194.46 812.554 2199.31 714.329C2204 619.14 2267.46 536.197 2343.07 488.011C2405.28 448.368 2479.44 481.693 2551.12 490.129Z" fill="#5EA3A6"/>
</g>
<g filter="url(#filter15_f_301_173)">
<path fill-rule="evenodd" clip-rule="evenodd" d="M1920.12 1422.13C1979.32 1429.1 2045.98 1417.83 2087.55 1464.2C2128.86 1510.29 2120.31 1581.97 2121.09 1646.33C2121.9 1712.05 2128.14 1780.64 2092.07 1833.37C2051.11 1893.23 1987.98 1929.18 1920.12 1940.1C1839.64 1953.04 1753.03 1952.19 1688.49 1898.3C1616.76 1838.4 1563.46 1744.55 1568.31 1646.33C1573 1551.14 1636.46 1468.2 1712.07 1420.01C1774.28 1380.37 1848.44 1413.69 1920.12 1422.13Z" fill="#5EA3A6"/>
</g>
<g filter="url(#filter16_f_301_173)">
<path fill-rule="evenodd" clip-rule="evenodd" d="M2656.57 -112.838C2739.24 -108.344 2774.44 -9.73222 2829.05 52.4941C2877.61 107.819 2941.07 152.346 2953.05 224.976C2966.97 309.422 2952.43 400.214 2897.15 465.552C2837.96 535.516 2746.5 593.043 2656.57 575.402C2572.06 558.825 2555.77 447.566 2494.9 386.649C2434.07 325.776 2313.8 310.713 2306.38 224.976C2298.94 139.076 2402.2 92.5204 2464.26 32.6598C2524.4 -25.3573 2573.13 -117.375 2656.57 -112.838Z" fill="#793E71"/>
</g>
<g filter="url(#filter17_f_301_173)">
<path fill-rule="evenodd" clip-rule="evenodd" d="M2025.57 819.162C2108.24 823.656 2143.44 922.268 2198.05 984.494C2246.61 1039.82 2310.07 1084.35 2322.05 1156.98C2335.97 1241.42 2321.43 1332.21 2266.15 1397.55C2206.96 1467.52 2115.5 1525.04 2025.57 1507.4C1941.06 1490.83 1924.77 1379.57 1863.9 1318.65C1803.07 1257.78 1682.8 1242.71 1675.38 1156.98C1667.94 1071.08 1771.2 1024.52 1833.26 964.66C1893.4 906.643 1942.13 814.625 2025.57 819.162Z" fill="#793E71"/>
</g>
<g filter="url(#filter18_f_301_173)">
<path fill-rule="evenodd" clip-rule="evenodd" d="M720.571 1249.16C803.242 1253.66 838.441 1352.27 893.053 1414.49C941.608 1469.82 1005.07 1514.35 1017.05 1586.98C1030.97 1671.42 1016.43 1762.21 961.148 1827.55C901.955 1897.52 810.502 1955.04 720.571 1937.4C636.061 1920.83 619.774 1809.57 558.898 1748.65C498.066 1687.78 377.802 1672.71 370.381 1586.98C362.945 1501.08 466.202 1454.52 528.255 1394.66C588.398 1336.64 637.129 1244.62 720.571 1249.16Z" fill="#793E71"/>
</g>
<g filter="url(#filter19_f_301_173)">
<path fill-rule="evenodd" clip-rule="evenodd" d="M2318.09 151.501C2405.62 145.85 2515.26 117.482 2568.7 187.03C2622.01 256.406 2562.4 353.627 2537.96 437.637C2522.44 490.988 2493.85 534.85 2455.77 575.308C2415.91 617.644 2374.97 659.144 2318.09 671.217C2245.9 686.543 2160.18 699.859 2106.22 649.511C2051.66 598.606 2069.18 512.243 2067.74 437.637C2066.25 360.631 2047.17 275.39 2097.88 217.425C2150.33 157.477 2238.6 156.632 2318.09 151.501Z" fill="#FEFF94"/>
</g>
<g filter="url(#filter20_f_301_173)">
<path fill-rule="evenodd" clip-rule="evenodd" d="M1687.09 1083.5C1774.62 1077.85 1884.26 1049.48 1937.7 1119.03C1991.01 1188.41 1931.4 1285.63 1906.96 1369.64C1891.44 1422.99 1862.85 1466.85 1824.77 1507.31C1784.91 1549.64 1743.97 1591.14 1687.09 1603.22C1614.9 1618.54 1529.18 1631.86 1475.22 1581.51C1420.66 1530.61 1438.18 1444.24 1436.74 1369.64C1435.25 1292.63 1416.17 1207.39 1466.88 1149.42C1519.33 1089.48 1607.6 1088.63 1687.09 1083.5Z" fill="#FEFF94"/>
</g>
<g filter="url(#filter21_f_301_173)">
<path fill-rule="evenodd" clip-rule="evenodd" d="M382.094 1513.5C469.621 1507.85 579.26 1479.48 632.701 1549.03C686.009 1618.41 626.397 1715.63 601.961 1799.64C586.444 1852.99 557.848 1896.85 519.765 1937.31C479.914 1979.64 438.968 2021.14 382.094 2033.22C309.899 2048.54 224.183 2061.86 170.219 2011.51C115.659 1960.61 133.179 1874.24 131.739 1799.64C130.253 1722.63 111.165 1637.39 161.882 1579.42C214.333 1519.48 302.605 1518.63 382.094 1513.5Z" fill="#FEFF94"/>
</g>
<g filter="url(#filter22_f_301_173)">
<path fill-rule="evenodd" clip-rule="evenodd" d="M2463.99 -704.263C2538.72 -699.756 2609.92 -689.719 2673 -648.957C2758.17 -593.916 2860.24 -538.534 2876.53 -437.678C2894.13 -328.729 2843.46 -208.063 2754.58 -143.925C2672.62 -84.7776 2563.77 -126.177 2463.99 -139.98C2384.11 -151.031 2304.75 -161.809 2243.36 -214.648C2176.43 -272.26 2121.01 -348.86 2118.15 -437.678C2115.21 -528.734 2156.81 -620.52 2228.47 -675.761C2293.83 -726.143 2381.94 -709.21 2463.99 -704.263Z" fill="#9995E5"/>
</g>
<g filter="url(#filter23_f_301_173)">
<path fill-rule="evenodd" clip-rule="evenodd" d="M2463.99 743.737C2538.72 748.244 2609.92 758.281 2673 799.043C2758.17 854.084 2860.24 909.466 2876.53 1010.32C2894.13 1119.27 2843.46 1239.94 2754.58 1304.08C2672.62 1363.22 2563.77 1321.82 2463.99 1308.02C2384.11 1296.97 2304.75 1286.19 2243.36 1233.35C2176.43 1175.74 2121.01 1099.14 2118.15 1010.32C2115.21 919.266 2156.81 827.48 2228.47 772.239C2293.83 721.857 2381.94 738.79 2463.99 743.737Z" fill="#9995E5"/>
</g>
<g filter="url(#filter24_f_301_173)">
<path fill-rule="evenodd" clip-rule="evenodd" d="M1832.99 1675.74C1907.72 1680.24 1978.92 1690.28 2042 1731.04C2127.17 1786.08 2229.24 1841.47 2245.53 1942.32C2263.13 2051.27 2212.46 2171.94 2123.58 2236.08C2041.62 2295.22 1932.77 2253.82 1832.99 2240.02C1753.11 2228.97 1673.75 2218.19 1612.36 2165.35C1545.43 2107.74 1490.01 2031.14 1487.15 1942.32C1484.21 1851.27 1525.81 1759.48 1597.47 1704.24C1662.83 1653.86 1750.94 1670.79 1832.99 1675.74Z" fill="#9995E5"/>
</g>
<g filter="url(#filter25_f_301_173)">
<path fill-rule="evenodd" clip-rule="evenodd" d="M1754.7 -103.697C1825.75 -104.416 1901 -117.123 1957.63 -74.2026C2020.57 -26.4996 2054.47 50.0538 2061.38 128.728C2068.98 215.203 2052.76 304.453 1996.72 370.754C1936.22 442.347 1848.34 495.828 1754.7 491.59C1663.78 487.475 1598.39 413.736 1533.63 349.794C1468.25 285.235 1382.35 220.487 1387.2 128.728C1391.97 38.5018 1479.47 -21.8404 1555.84 -70.1353C1614.9 -107.49 1684.82 -102.99 1754.7 -103.697Z" fill="#E471A7"/>
</g>
<g filter="url(#filter26_f_301_173)">
<path fill-rule="evenodd" clip-rule="evenodd" d="M1123.7 828.303C1194.75 827.584 1270 814.877 1326.63 857.797C1389.57 905.5 1423.47 982.054 1430.38 1060.73C1437.98 1147.2 1421.76 1236.45 1365.72 1302.75C1305.22 1374.35 1217.34 1427.83 1123.7 1423.59C1032.78 1419.47 967.394 1345.74 902.634 1281.79C837.249 1217.23 751.345 1152.49 756.197 1060.73C760.967 970.502 848.474 910.16 924.836 861.865C983.9 824.51 1053.82 829.01 1123.7 828.303Z" fill="#E471A7"/>
</g>
<g filter="url(#filter27_f_301_173)">
<path fill-rule="evenodd" clip-rule="evenodd" d="M-181.301 1258.3C-110.245 1257.58 -35.0021 1244.88 21.6303 1287.8C84.5738 1335.5 118.469 1412.05 125.382 1490.73C132.979 1577.2 116.76 1666.45 60.7246 1732.75C0.215439 1804.35 -87.6576 1857.83 -181.301 1853.59C-272.216 1849.47 -337.606 1775.74 -402.366 1711.79C-467.751 1647.23 -553.655 1582.49 -548.803 1490.73C-544.033 1400.5 -456.526 1340.16 -380.164 1291.86C-321.1 1254.51 -251.182 1259.01 -181.301 1258.3Z" fill="#E471A7"/>
</g>
<g filter="url(#filter28_f_301_173)">
<path fill-rule="evenodd" clip-rule="evenodd" d="M2413.57 -868.838C2496.24 -864.344 2531.44 -765.732 2586.05 -703.506C2634.61 -648.181 2698.07 -603.654 2710.05 -531.024C2723.97 -446.578 2709.43 -355.786 2654.15 -290.448C2594.96 -220.484 2503.5 -162.957 2413.57 -180.598C2329.06 -197.175 2312.77 -308.434 2251.9 -369.351C2191.07 -430.224 2070.8 -445.287 2063.38 -531.024C2055.94 -616.924 2159.2 -663.48 2221.26 -723.34C2281.4 -781.357 2330.13 -873.375 2413.57 -868.838Z" fill="#793E71"/>
</g>
<g filter="url(#filter29_f_301_173)">
<path fill-rule="evenodd" clip-rule="evenodd" d="M2413.57 579.162C2496.24 583.656 2531.44 682.268 2586.05 744.494C2634.61 799.819 2698.07 844.346 2710.05 916.976C2723.97 1001.42 2709.43 1092.21 2654.15 1157.55C2594.96 1227.52 2503.5 1285.04 2413.57 1267.4C2329.06 1250.83 2312.77 1139.57 2251.9 1078.65C2191.07 1017.78 2070.8 1002.71 2063.38 916.976C2055.94 831.076 2159.2 784.52 2221.26 724.66C2281.4 666.643 2330.13 574.625 2413.57 579.162Z" fill="#793E71"/>
</g>
<g filter="url(#filter30_f_301_173)">
<path fill-rule="evenodd" clip-rule="evenodd" d="M1782.57 1511.16C1865.24 1515.66 1900.44 1614.27 1955.05 1676.49C2003.61 1731.82 2067.07 1776.35 2079.05 1848.98C2092.97 1933.42 2078.43 2024.21 2023.15 2089.55C1963.96 2159.52 1872.5 2217.04 1782.57 2199.4C1698.06 2182.83 1681.77 2071.57 1620.9 2010.65C1560.07 1949.78 1439.8 1934.71 1432.38 1848.98C1424.94 1763.08 1528.2 1716.52 1590.26 1656.66C1650.4 1598.64 1699.13 1506.62 1782.57 1511.16Z" fill="#793E71"/>
</g>
<g filter="url(#filter31_f_301_173)">
<path fill-rule="evenodd" clip-rule="evenodd" d="M79.2398 784.874C165.53 791.272 227.41 853.507 294.568 905.573C374.551 967.582 505.839 1012.79 499.799 1110.92C493.736 1209.42 343.06 1222.99 270.689 1293.5C196.612 1365.67 184.826 1512.9 79.2398 1520.67C-25.812 1528.4 -74.4505 1399.32 -144.239 1324.04C-206.843 1256.51 -295.03 1200.9 -300.621 1110.92C-306.409 1017.76 -245.132 933.388 -172.392 870.953C-103.538 811.853 -13.1175 778.027 79.2398 784.874Z" fill="#7D77F6"/>
</g>
<g filter="url(#filter32_f_301_173)">
<path fill-rule="evenodd" clip-rule="evenodd" d="M-137.433 1123.88C-63.0673 1121.58 14.7851 1093 77.0479 1133.73C149.548 1181.16 209.584 1261.67 205.515 1348.21C201.53 1432.95 119.785 1485.53 57.7827 1543.43C-0.930641 1598.26 -57.1734 1665.03 -137.433 1668.47C-219.949 1672 -293.419 1620.95 -350.13 1560.91C-405.063 1502.75 -442.045 1428.19 -439.912 1348.21C-437.829 1270.12 -401.829 1193.1 -339.079 1146.57C-282.601 1104.68 -207.715 1126.05 -137.433 1123.88Z" fill="#80E5E9"/>
</g>
<g filter="url(#filter33_f_301_173)">
<path fill-rule="evenodd" clip-rule="evenodd" d="M724.122 844.129C783.321 851.096 849.978 839.828 891.549 886.203C932.857 932.286 924.305 1003.97 925.093 1068.33C925.897 1134.05 932.14 1202.64 896.065 1255.37C855.111 1315.23 791.983 1351.18 724.122 1362.1C643.635 1375.04 557.032 1374.19 492.492 1320.3C420.761 1260.4 367.463 1166.55 372.305 1068.33C376.998 973.14 440.457 890.197 516.069 842.011C578.278 802.368 652.442 835.693 724.122 844.129Z" fill="#5EA3A6"/>
</g>
<g filter="url(#filter34_f_301_173)">
<path fill-rule="evenodd" clip-rule="evenodd" d="M829.571 241.162C912.242 245.656 947.441 344.268 1002.05 406.494C1050.61 461.819 1114.07 506.346 1126.05 578.976C1139.97 663.422 1125.43 754.214 1070.15 819.552C1010.96 889.516 919.502 947.043 829.571 929.402C745.061 912.825 728.774 801.566 667.898 740.649C607.066 679.776 486.802 664.713 479.381 578.976C471.945 493.076 575.202 446.52 637.255 386.66C697.398 328.643 746.129 236.625 829.571 241.162Z" fill="#793E71"/>
</g>
<g filter="url(#filter35_f_301_173)">
<path fill-rule="evenodd" clip-rule="evenodd" d="M491.094 505.501C578.621 499.85 688.26 471.482 741.701 541.03C795.009 610.406 735.397 707.627 710.961 791.637C695.444 844.988 666.848 888.85 628.765 929.308C588.914 971.644 547.968 1013.14 491.094 1025.22C418.899 1040.54 333.183 1053.86 279.219 1003.51C224.659 952.606 242.179 866.243 240.739 791.637C239.253 714.631 220.165 629.39 270.882 571.425C323.333 511.477 411.605 510.632 491.094 505.501Z" fill="#FEFF94"/>
</g>
<g filter="url(#filter36_f_301_173)">
<path fill-rule="evenodd" clip-rule="evenodd" d="M636.992 1097.74C711.724 1102.24 782.919 1112.28 845.997 1153.04C931.173 1208.08 1033.24 1263.47 1049.53 1364.32C1067.13 1473.27 1016.46 1593.94 927.582 1658.08C845.619 1717.22 736.767 1675.82 636.992 1662.02C557.114 1650.97 477.748 1640.19 416.364 1587.35C349.433 1529.74 294.014 1453.14 291.146 1364.32C288.206 1273.27 329.807 1181.48 401.473 1126.24C466.834 1075.86 554.943 1092.79 636.992 1097.74Z" fill="#9995E5"/>
</g>
<g filter="url(#filter37_f_301_173)">
<path fill-rule="evenodd" clip-rule="evenodd" d="M-72.3006 250.303C-1.24538 249.584 73.9979 236.877 130.63 279.797C193.574 327.5 227.469 404.054 234.382 482.728C241.979 569.203 225.76 658.453 169.725 724.754C109.215 796.347 21.3424 849.828 -72.3006 845.59C-163.216 841.475 -228.606 767.736 -293.366 703.794C-358.751 639.235 -444.655 574.487 -439.803 482.728C-435.033 392.502 -347.526 332.16 -271.164 283.865C-212.1 246.51 -142.182 251.01 -72.3006 250.303Z" fill="#E471A7"/>
</g>
<g filter="url(#filter38_f_301_173)">
<path fill-rule="evenodd" clip-rule="evenodd" d="M1333.57 75.1616C1416.24 79.6565 1451.44 178.268 1506.05 240.494C1554.61 295.819 1618.07 340.346 1630.05 412.976C1643.97 497.422 1629.43 588.214 1574.15 653.552C1514.96 723.516 1423.5 781.043 1333.57 763.402C1249.06 746.825 1232.77 635.566 1171.9 574.649C1111.07 513.776 990.802 498.713 983.381 412.976C975.945 327.076 1079.2 280.52 1141.26 220.66C1201.4 162.643 1250.13 70.6248 1333.57 75.1616Z" fill="#793E71"/>
</g>
<g filter="url(#filter39_f_301_173)">
<path fill-rule="evenodd" clip-rule="evenodd" d="M413.24 -599.126C499.53 -592.728 561.41 -530.493 628.568 -478.427C708.551 -416.418 839.839 -371.211 833.799 -273.079C827.736 -174.583 677.06 -161.013 604.689 -90.5028C530.612 -18.33 518.826 128.895 413.24 136.668C308.188 144.401 259.55 15.3211 189.761 -59.9582C127.157 -127.488 38.9702 -183.1 33.3793 -273.079C27.5905 -366.244 88.8678 -450.612 161.608 -513.047C230.462 -572.147 320.882 -605.973 413.24 -599.126Z" fill="#7D77F6"/>
</g>
<g filter="url(#filter40_f_301_173)">
<path fill-rule="evenodd" clip-rule="evenodd" d="M196.567 -260.122C270.933 -262.416 348.785 -290.996 411.048 -250.268C483.548 -202.843 543.584 -122.326 539.515 -35.7877C535.53 48.952 453.785 101.528 391.783 159.428C333.069 214.256 276.827 281.025 196.567 284.465C114.051 288.001 40.5814 236.953 -16.13 176.91C-71.0628 118.749 -108.045 44.1855 -105.912 -35.7877C-103.829 -113.884 -67.8293 -190.896 -5.07935 -237.434C51.3989 -279.322 126.285 -257.955 196.567 -260.122Z" fill="#80E5E9"/>
</g>
<g filter="url(#filter41_f_301_173)">
<path fill-rule="evenodd" clip-rule="evenodd" d="M1058.12 -539.871C1117.32 -532.904 1183.98 -544.172 1225.55 -497.797C1266.86 -451.714 1258.31 -380.03 1259.09 -315.671C1259.9 -249.946 1266.14 -181.363 1230.07 -128.631C1189.11 -68.7665 1125.98 -32.8215 1058.12 -21.904C977.635 -8.95542 891.032 -9.81395 826.492 -63.7049C754.761 -123.6 701.463 -217.446 706.305 -315.671C710.998 -410.86 774.457 -493.803 850.069 -541.989C912.278 -581.632 986.442 -548.307 1058.12 -539.871Z" fill="#5EA3A6"/>
</g>
<g filter="url(#filter42_f_301_173)">
<path fill-rule="evenodd" clip-rule="evenodd" d="M1163.57 -1142.84C1246.24 -1138.34 1281.44 -1039.73 1336.05 -977.506C1384.61 -922.181 1448.07 -877.654 1460.05 -805.024C1473.97 -720.578 1459.43 -629.786 1404.15 -564.448C1344.96 -494.484 1253.5 -436.957 1163.57 -454.598C1079.06 -471.175 1062.77 -582.434 1001.9 -643.351C941.066 -704.224 820.802 -719.287 813.381 -805.024C805.945 -890.924 909.202 -937.48 971.255 -997.34C1031.4 -1055.36 1080.13 -1147.38 1163.57 -1142.84Z" fill="#793E71"/>
</g>
<g filter="url(#filter43_f_301_173)">
<path fill-rule="evenodd" clip-rule="evenodd" d="M825.094 -878.499C912.621 -884.15 1022.26 -912.518 1075.7 -842.97C1129.01 -773.594 1069.4 -676.373 1044.96 -592.363C1029.44 -539.012 1000.85 -495.15 962.765 -454.692C922.914 -412.356 881.968 -370.856 825.094 -358.783C752.899 -343.457 667.183 -330.141 613.219 -380.489C558.659 -431.394 576.179 -517.757 574.739 -592.363C573.253 -669.369 554.165 -754.61 604.882 -812.575C657.333 -872.523 745.605 -873.368 825.094 -878.499Z" fill="#FEFF94"/>
</g>
<g filter="url(#filter44_f_301_173)">
<path fill-rule="evenodd" clip-rule="evenodd" d="M970.992 -286.263C1045.72 -281.756 1116.92 -271.719 1180 -230.957C1265.17 -175.916 1367.24 -120.534 1383.53 -19.6778C1401.13 89.271 1350.46 209.937 1261.58 274.075C1179.62 333.222 1070.77 291.823 970.992 278.02C891.114 266.969 811.748 256.191 750.364 203.352C683.433 145.74 628.014 69.1395 625.146 -19.6778C622.206 -110.734 663.807 -202.52 735.473 -257.761C800.834 -308.143 888.943 -291.21 970.992 -286.263Z" fill="#9995E5"/>
</g>
<g filter="url(#filter45_f_301_173)">
<path fill-rule="evenodd" clip-rule="evenodd" d="M920.571 -450.838C1003.24 -446.344 1038.44 -347.732 1093.05 -285.506C1141.61 -230.181 1205.07 -185.654 1217.05 -113.024C1230.97 -28.5783 1216.43 62.2135 1161.15 127.552C1101.96 197.516 1010.5 255.043 920.571 237.402C836.061 220.825 819.774 109.566 758.898 48.6487C698.066 -12.2242 577.802 -27.2868 570.381 -113.024C562.945 -198.924 666.202 -245.48 728.255 -305.34C788.398 -363.357 837.129 -455.375 920.571 -450.838Z" fill="#793E71"/>
</g>
</g>
<defs>
<filter id="filter0_d_301_173" x="436.312" y="171.5" width="615.485" height="67.5" filterUnits="userSpaceOnUse" color-interpolation-filters="sRGB">
<feFlood flood-opacity="0" result="BackgroundImageFix"/>
<feColorMatrix in="SourceAlpha" type="matrix" values="0 0 0 0 0 0 0 0 0 0 0 0 0 0 0 0 0 0 127 0" result="hardAlpha"/>
<feOffset dy="4"/>
<feGaussianBlur stdDeviation="2"/>
<feComposite in2="hardAlpha" operator="out"/>
<feColorMatrix type="matrix" values="0 0 0 0 0 0 0 0 0 0 0 0 0 0 0 0 0 0 0.25 0"/>
<feBlend mode="normal" in2="BackgroundImageFix" result="effect1_dropShadow_301_173"/>
<feBlend mode="normal" in="SourceGraphic" in2="effect1_dropShadow_301_173" result="shape"/>
</filter>
<filter id="filter1_f_301_173" x="-472" y="-1177" width="1801" height="1737" filterUnits="userSpaceOnUse" color-interpolation-filters="sRGB">
<feFlood flood-opacity="0" result="BackgroundImageFix"/>
<feBlend mode="normal" in="SourceGraphic" in2="BackgroundImageFix" result="shape"/>
<feGaussianBlur stdDeviation="250" result="effect1_foregroundBlur_301_173"/>
</filter>
<filter id="filter2_f_301_173" x="-611" y="-849" width="1645.71" height="1556.64" filterUnits="userSpaceOnUse" color-interpolation-filters="sRGB">
<feFlood flood-opacity="0" result="BackgroundImageFix"/>
<feBlend mode="normal" in="SourceGraphic" in2="BackgroundImageFix" result="shape"/>
<feGaussianBlur stdDeviation="250" result="effect1_foregroundBlur_301_173"/>
</filter>
<filter id="filter3_f_301_173" x="201" y="-1138" width="1554" height="1546" filterUnits="userSpaceOnUse" color-interpolation-filters="sRGB">
<feFlood flood-opacity="0" result="BackgroundImageFix"/>
<feBlend mode="normal" in="SourceGraphic" in2="BackgroundImageFix" result="shape"/>
<feGaussianBlur stdDeviation="250" result="effect1_foregroundBlur_301_173"/>
</filter>
<filter id="filter4_f_301_173" x="65" y="-1466" width="1527.2" height="1544.09" filterUnits="userSpaceOnUse" color-interpolation-filters="sRGB">
<feFlood flood-opacity="0" result="BackgroundImageFix"/>
<feBlend mode="normal" in="SourceGraphic" in2="BackgroundImageFix" result="shape"/>
<feGaussianBlur stdDeviation="250" result="effect1_foregroundBlur_301_173"/>
</filter>
<filter id="filter5_f_301_173" x="120" y="-870" width="1762" height="1598" filterUnits="userSpaceOnUse" color-interpolation-filters="sRGB">
<feFlood flood-opacity="0" result="BackgroundImageFix"/>
<feBlend mode="normal" in="SourceGraphic" in2="BackgroundImageFix" result="shape"/>
<feGaussianBlur stdDeviation="250" result="effect1_foregroundBlur_301_173"/>
</filter>
<filter id="filter6_f_301_173" x="65" y="-1028" width="1651.99" height="1691.62" filterUnits="userSpaceOnUse" color-interpolation-filters="sRGB">
<feFlood flood-opacity="0" result="BackgroundImageFix"/>
<feBlend mode="normal" in="SourceGraphic" in2="BackgroundImageFix" result="shape"/>
<feGaussianBlur stdDeviation="250" result="effect1_foregroundBlur_301_173"/>
</filter>
<filter id="filter7_f_301_173" x="1026" y="-1518" width="1801" height="1737" filterUnits="userSpaceOnUse" color-interpolation-filters="sRGB">
<feFlood flood-opacity="0" result="BackgroundImageFix"/>
<feBlend mode="normal" in="SourceGraphic" in2="BackgroundImageFix" result="shape"/>
<feGaussianBlur stdDeviation="250" result="effect1_foregroundBlur_301_173"/>
</filter>
<filter id="filter8_f_301_173" x="1026" y="-70" width="1801" height="1737" filterUnits="userSpaceOnUse" color-interpolation-filters="sRGB">
<feFlood flood-opacity="0" result="BackgroundImageFix"/>
<feBlend mode="normal" in="SourceGraphic" in2="BackgroundImageFix" result="shape"/>
<feGaussianBlur stdDeviation="250" result="effect1_foregroundBlur_301_173"/>
</filter>
<filter id="filter9_f_301_173" x="395" y="862" width="1801" height="1737" filterUnits="userSpaceOnUse" color-interpolation-filters="sRGB">
<feFlood flood-opacity="0" result="BackgroundImageFix"/>
<feBlend mode="normal" in="SourceGraphic" in2="BackgroundImageFix" result="shape"/>
<feGaussianBlur stdDeviation="250" result="effect1_foregroundBlur_301_173"/>
</filter>
<filter id="filter10_f_301_173" x="887" y="-1190" width="1645.71" height="1556.64" filterUnits="userSpaceOnUse" color-interpolation-filters="sRGB">
<feFlood flood-opacity="0" result="BackgroundImageFix"/>
<feBlend mode="normal" in="SourceGraphic" in2="BackgroundImageFix" result="shape"/>
<feGaussianBlur stdDeviation="250" result="effect1_foregroundBlur_301_173"/>
</filter>
<filter id="filter11_f_301_173" x="887" y="258" width="1645.71" height="1556.64" filterUnits="userSpaceOnUse" color-interpolation-filters="sRGB">
<feFlood flood-opacity="0" result="BackgroundImageFix"/>
<feBlend mode="normal" in="SourceGraphic" in2="BackgroundImageFix" result="shape"/>
<feGaussianBlur stdDeviation="250" result="effect1_foregroundBlur_301_173"/>
</filter>
<filter id="filter12_f_301_173" x="256" y="1190" width="1645.71" height="1556.64" filterUnits="userSpaceOnUse" color-interpolation-filters="sRGB">
<feFlood flood-opacity="0" result="BackgroundImageFix"/>
<feBlend mode="normal" in="SourceGraphic" in2="BackgroundImageFix" result="shape"/>
<feGaussianBlur stdDeviation="250" result="effect1_foregroundBlur_301_173"/>
</filter>
<filter id="filter13_f_301_173" x="1699" y="-1479" width="1554" height="1546" filterUnits="userSpaceOnUse" color-interpolation-filters="sRGB">
<feFlood flood-opacity="0" result="BackgroundImageFix"/>
<feBlend mode="normal" in="SourceGraphic" in2="BackgroundImageFix" result="shape"/>
<feGaussianBlur stdDeviation="250" result="effect1_foregroundBlur_301_173"/>
</filter>
<filter id="filter14_f_301_173" x="1699" y="-31" width="1554" height="1546" filterUnits="userSpaceOnUse" color-interpolation-filters="sRGB">
<feFlood flood-opacity="0" result="BackgroundImageFix"/>
<feBlend mode="normal" in="SourceGraphic" in2="BackgroundImageFix" result="shape"/>
<feGaussianBlur stdDeviation="250" result="effect1_foregroundBlur_301_173"/>
</filter>
<filter id="filter15_f_301_173" x="1068" y="901" width="1554" height="1546" filterUnits="userSpaceOnUse" color-interpolation-filters="sRGB">
<feFlood flood-opacity="0" result="BackgroundImageFix"/>
<feBlend mode="normal" in="SourceGraphic" in2="BackgroundImageFix" result="shape"/>
<feGaussianBlur stdDeviation="250" result="effect1_foregroundBlur_301_173"/>
</filter>
<filter id="filter16_f_301_173" x="1806" y="-613" width="1651.99" height="1691.62" filterUnits="userSpaceOnUse" color-interpolation-filters="sRGB">
<feFlood flood-opacity="0" result="BackgroundImageFix"/>
<feBlend mode="normal" in="SourceGraphic" in2="BackgroundImageFix" result="shape"/>
<feGaussianBlur stdDeviation="250" result="effect1_foregroundBlur_301_173"/>
</filter>
<filter id="filter17_f_301_173" x="1175" y="319" width="1651.99" height="1691.62" filterUnits="userSpaceOnUse" color-interpolation-filters="sRGB">
<feFlood flood-opacity="0" result="BackgroundImageFix"/>
<feBlend mode="normal" in="SourceGraphic" in2="BackgroundImageFix" result="shape"/>
<feGaussianBlur stdDeviation="250" result="effect1_foregroundBlur_301_173"/>
</filter>
<filter id="filter18_f_301_173" x="-130" y="749" width="1651.99" height="1691.62" filterUnits="userSpaceOnUse" color-interpolation-filters="sRGB">
<feFlood flood-opacity="0" result="BackgroundImageFix"/>
<feBlend mode="normal" in="SourceGraphic" in2="BackgroundImageFix" result="shape"/>
<feGaussianBlur stdDeviation="250" result="effect1_foregroundBlur_301_173"/>
</filter>
<filter id="filter19_f_301_173" x="1563" y="-359" width="1527.2" height="1544.09" filterUnits="userSpaceOnUse" color-interpolation-filters="sRGB">
<feFlood flood-opacity="0" result="BackgroundImageFix"/>
<feBlend mode="normal" in="SourceGraphic" in2="BackgroundImageFix" result="shape"/>
<feGaussianBlur stdDeviation="250" result="effect1_foregroundBlur_301_173"/>
</filter>
<filter id="filter20_f_301_173" x="932" y="573" width="1527.2" height="1544.09" filterUnits="userSpaceOnUse" color-interpolation-filters="sRGB">
<feFlood flood-opacity="0" result="BackgroundImageFix"/>
<feBlend mode="normal" in="SourceGraphic" in2="BackgroundImageFix" result="shape"/>
<feGaussianBlur stdDeviation="250" result="effect1_foregroundBlur_301_173"/>
</filter>
<filter id="filter21_f_301_173" x="-373" y="1003" width="1527.2" height="1544.09" filterUnits="userSpaceOnUse" color-interpolation-filters="sRGB">
<feFlood flood-opacity="0" result="BackgroundImageFix"/>
<feBlend mode="normal" in="SourceGraphic" in2="BackgroundImageFix" result="shape"/>
<feGaussianBlur stdDeviation="250" result="effect1_foregroundBlur_301_173"/>
</filter>
<filter id="filter22_f_301_173" x="1618" y="-1211" width="1762" height="1598" filterUnits="userSpaceOnUse" color-interpolation-filters="sRGB">
<feFlood flood-opacity="0" result="BackgroundImageFix"/>
<feBlend mode="normal" in="SourceGraphic" in2="BackgroundImageFix" result="shape"/>
<feGaussianBlur stdDeviation="250" result="effect1_foregroundBlur_301_173"/>
</filter>
<filter id="filter23_f_301_173" x="1618" y="237" width="1762" height="1598" filterUnits="userSpaceOnUse" color-interpolation-filters="sRGB">
<feFlood flood-opacity="0" result="BackgroundImageFix"/>
<feBlend mode="normal" in="SourceGraphic" in2="BackgroundImageFix" result="shape"/>
<feGaussianBlur stdDeviation="250" result="effect1_foregroundBlur_301_173"/>
</filter>
<filter id="filter24_f_301_173" x="987" y="1169" width="1762" height="1598" filterUnits="userSpaceOnUse" color-interpolation-filters="sRGB">
<feFlood flood-opacity="0" result="BackgroundImageFix"/>
<feBlend mode="normal" in="SourceGraphic" in2="BackgroundImageFix" result="shape"/>
<feGaussianBlur stdDeviation="250" result="effect1_foregroundBlur_301_173"/>
</filter>
<filter id="filter25_f_301_173" x="887" y="-606" width="1676.14" height="1597.83" filterUnits="userSpaceOnUse" color-interpolation-filters="sRGB">
<feFlood flood-opacity="0" result="BackgroundImageFix"/>
<feBlend mode="normal" in="SourceGraphic" in2="BackgroundImageFix" result="shape"/>
<feGaussianBlur stdDeviation="250" result="effect1_foregroundBlur_301_173"/>
</filter>
<filter id="filter26_f_301_173" x="256" y="326" width="1676.14" height="1597.83" filterUnits="userSpaceOnUse" color-interpolation-filters="sRGB">
<feFlood flood-opacity="0" result="BackgroundImageFix"/>
<feBlend mode="normal" in="SourceGraphic" in2="BackgroundImageFix" result="shape"/>
<feGaussianBlur stdDeviation="250" result="effect1_foregroundBlur_301_173"/>
</filter>
<filter id="filter27_f_301_173" x="-1049" y="756" width="1676.14" height="1597.83" filterUnits="userSpaceOnUse" color-interpolation-filters="sRGB">
<feFlood flood-opacity="0" result="BackgroundImageFix"/>
<feBlend mode="normal" in="SourceGraphic" in2="BackgroundImageFix" result="shape"/>
<feGaussianBlur stdDeviation="250" result="effect1_foregroundBlur_301_173"/>
</filter>
<filter id="filter28_f_301_173" x="1563" y="-1369" width="1651.99" height="1691.62" filterUnits="userSpaceOnUse" color-interpolation-filters="sRGB">
<feFlood flood-opacity="0" result="BackgroundImageFix"/>
<feBlend mode="normal" in="SourceGraphic" in2="BackgroundImageFix" result="shape"/>
<feGaussianBlur stdDeviation="250" result="effect1_foregroundBlur_301_173"/>
</filter>
<filter id="filter29_f_301_173" x="1563" y="79" width="1651.99" height="1691.62" filterUnits="userSpaceOnUse" color-interpolation-filters="sRGB">
<feFlood flood-opacity="0" result="BackgroundImageFix"/>
<feBlend mode="normal" in="SourceGraphic" in2="BackgroundImageFix" result="shape"/>
<feGaussianBlur stdDeviation="250" result="effect1_foregroundBlur_301_173"/>
</filter>
<filter id="filter30_f_301_173" x="932" y="1011" width="1651.99" height="1691.62" filterUnits="userSpaceOnUse" color-interpolation-filters="sRGB">
<feFlood flood-opacity="0" result="BackgroundImageFix"/>
<feBlend mode="normal" in="SourceGraphic" in2="BackgroundImageFix" result="shape"/>
<feGaussianBlur stdDeviation="250" result="effect1_foregroundBlur_301_173"/>
</filter>
<filter id="filter31_f_301_173" x="-801" y="284" width="1801" height="1737" filterUnits="userSpaceOnUse" color-interpolation-filters="sRGB">
<feFlood flood-opacity="0" result="BackgroundImageFix"/>
<feBlend mode="normal" in="SourceGraphic" in2="BackgroundImageFix" result="shape"/>
<feGaussianBlur stdDeviation="250" result="effect1_foregroundBlur_301_173"/>
</filter>
<filter id="filter32_f_301_173" x="-940" y="612" width="1645.71" height="1556.64" filterUnits="userSpaceOnUse" color-interpolation-filters="sRGB">
<feFlood flood-opacity="0" result="BackgroundImageFix"/>
<feBlend mode="normal" in="SourceGraphic" in2="BackgroundImageFix" result="shape"/>
<feGaussianBlur stdDeviation="250" result="effect1_foregroundBlur_301_173"/>
</filter>
<filter id="filter33_f_301_173" x="-128" y="323" width="1554" height="1546" filterUnits="userSpaceOnUse" color-interpolation-filters="sRGB">
<feFlood flood-opacity="0" result="BackgroundImageFix"/>
<feBlend mode="normal" in="SourceGraphic" in2="BackgroundImageFix" result="shape"/>
<feGaussianBlur stdDeviation="250" result="effect1_foregroundBlur_301_173"/>
</filter>
<filter id="filter34_f_301_173" x="-21" y="-259" width="1651.99" height="1691.62" filterUnits="userSpaceOnUse" color-interpolation-filters="sRGB">
<feFlood flood-opacity="0" result="BackgroundImageFix"/>
<feBlend mode="normal" in="SourceGraphic" in2="BackgroundImageFix" result="shape"/>
<feGaussianBlur stdDeviation="250" result="effect1_foregroundBlur_301_173"/>
</filter>
<filter id="filter35_f_301_173" x="-264" y="-5" width="1527.2" height="1544.09" filterUnits="userSpaceOnUse" color-interpolation-filters="sRGB">
<feFlood flood-opacity="0" result="BackgroundImageFix"/>
<feBlend mode="normal" in="SourceGraphic" in2="BackgroundImageFix" result="shape"/>
<feGaussianBlur stdDeviation="250" result="effect1_foregroundBlur_301_173"/>
</filter>
<filter id="filter36_f_301_173" x="-209" y="591" width="1762" height="1598" filterUnits="userSpaceOnUse" color-interpolation-filters="sRGB">
<feFlood flood-opacity="0" result="BackgroundImageFix"/>
<feBlend mode="normal" in="SourceGraphic" in2="BackgroundImageFix" result="shape"/>
<feGaussianBlur stdDeviation="250" result="effect1_foregroundBlur_301_173"/>
</filter>
<filter id="filter37_f_301_173" x="-940" y="-252" width="1676.14" height="1597.83" filterUnits="userSpaceOnUse" color-interpolation-filters="sRGB">
<feFlood flood-opacity="0" result="BackgroundImageFix"/>
<feBlend mode="normal" in="SourceGraphic" in2="BackgroundImageFix" result="shape"/>
<feGaussianBlur stdDeviation="250" result="effect1_foregroundBlur_301_173"/>
</filter>
<filter id="filter38_f_301_173" x="483" y="-425" width="1651.99" height="1691.62" filterUnits="userSpaceOnUse" color-interpolation-filters="sRGB">
<feFlood flood-opacity="0" result="BackgroundImageFix"/>
<feBlend mode="normal" in="SourceGraphic" in2="BackgroundImageFix" result="shape"/>
<feGaussianBlur stdDeviation="250" result="effect1_foregroundBlur_301_173"/>
</filter>
<filter id="filter39_f_301_173" x="-467" y="-1100" width="1801" height="1737" filterUnits="userSpaceOnUse" color-interpolation-filters="sRGB">
<feFlood flood-opacity="0" result="BackgroundImageFix"/>
<feBlend mode="normal" in="SourceGraphic" in2="BackgroundImageFix" result="shape"/>
<feGaussianBlur stdDeviation="250" result="effect1_foregroundBlur_301_173"/>
</filter>
<filter id="filter40_f_301_173" x="-606" y="-772" width="1645.71" height="1556.64" filterUnits="userSpaceOnUse" color-interpolation-filters="sRGB">
<feFlood flood-opacity="0" result="BackgroundImageFix"/>
<feBlend mode="normal" in="SourceGraphic" in2="BackgroundImageFix" result="shape"/>
<feGaussianBlur stdDeviation="250" result="effect1_foregroundBlur_301_173"/>
</filter>
<filter id="filter41_f_301_173" x="206" y="-1061" width="1554" height="1546" filterUnits="userSpaceOnUse" color-interpolation-filters="sRGB">
<feFlood flood-opacity="0" result="BackgroundImageFix"/>
<feBlend mode="normal" in="SourceGraphic" in2="BackgroundImageFix" result="shape"/>
<feGaussianBlur stdDeviation="250" result="effect1_foregroundBlur_301_173"/>
</filter>
<filter id="filter42_f_301_173" x="313" y="-1643" width="1651.99" height="1691.62" filterUnits="userSpaceOnUse" color-interpolation-filters="sRGB">
<feFlood flood-opacity="0" result="BackgroundImageFix"/>
<feBlend mode="normal" in="SourceGraphic" in2="BackgroundImageFix" result="shape"/>
<feGaussianBlur stdDeviation="250" result="effect1_foregroundBlur_301_173"/>
</filter>
<filter id="filter43_f_301_173" x="70" y="-1389" width="1527.2" height="1544.09" filterUnits="userSpaceOnUse" color-interpolation-filters="sRGB">
<feFlood flood-opacity="0" result="BackgroundImageFix"/>
<feBlend mode="normal" in="SourceGraphic" in2="BackgroundImageFix" result="shape"/>
<feGaussianBlur stdDeviation="250" result="effect1_foregroundBlur_301_173"/>
</filter>
<filter id="filter44_f_301_173" x="125" y="-793" width="1762" height="1598" filterUnits="userSpaceOnUse" color-interpolation-filters="sRGB">
<feFlood flood-opacity="0" result="BackgroundImageFix"/>
<feBlend mode="normal" in="SourceGraphic" in2="BackgroundImageFix" result="shape"/>
<feGaussianBlur stdDeviation="250" result="effect1_foregroundBlur_301_173"/>
</filter>
<filter id="filter45_f_301_173" x="70" y="-951" width="1651.99" height="1691.62" filterUnits="userSpaceOnUse" color-interpolation-filters="sRGB">
<feFlood flood-opacity="0" result="BackgroundImageFix"/>
<feBlend mode="normal" in="SourceGraphic" in2="BackgroundImageFix" result="shape"/>
<feGaussianBlur stdDeviation="250" result="effect1_foregroundBlur_301_173"/>
</filter>
<clipPath id="clip0_301_173">
<rect width="2407" height="2465" fill="white"/>
</clipPath>
<clipPath id="clip1_301_173">
<rect width="2497" height="3640" fill="white" transform="translate(-19 -1175)"/>
</clipPath>
</defs>
</svg>
