<svg width="1440" height="1553" viewBox="0 0 1440 1553" fill="none" xmlns="http://www.w3.org/2000/svg">
<g clip-path="url(#clip0_46_234)">
<rect width="1515" height="1588" transform="translate(-60)" fill="#3A718C"/>
<g filter="url(#filter0_f_46_234)">
<path fill-rule="evenodd" clip-rule="evenodd" d="M367.24 498.874C453.53 505.272 515.41 567.507 582.568 619.573C662.551 681.582 793.839 726.789 787.799 824.921C781.736 923.417 631.06 936.987 558.689 1007.5C484.612 1079.67 472.826 1226.9 367.24 1234.67C262.188 1242.4 213.549 1113.32 143.761 1038.04C81.157 970.512 -7.02982 914.9 -12.6207 824.921C-18.4095 731.756 42.8678 647.388 115.608 584.953C184.462 525.853 274.882 492.027 367.24 498.874Z" fill="#7D77F6"/>
</g>
<g filter="url(#filter1_f_46_234)">
<path fill-rule="evenodd" clip-rule="evenodd" d="M150.567 837.878C224.933 835.584 302.785 807.004 365.048 847.732C437.548 895.157 497.584 975.674 493.515 1062.21C489.53 1146.95 407.785 1199.53 345.783 1257.43C287.069 1312.26 230.827 1379.03 150.567 1382.47C68.0514 1386 -5.41862 1334.95 -62.13 1274.91C-117.063 1216.75 -154.045 1142.19 -151.912 1062.21C-149.829 984.116 -113.829 907.104 -51.0793 860.566C5.39893 818.678 80.2849 840.045 150.567 837.878Z" fill="#80E5E9"/>
</g>
<g filter="url(#filter2_f_46_234)">
<path fill-rule="evenodd" clip-rule="evenodd" d="M1012.12 558.129C1071.32 565.096 1137.98 553.828 1179.55 600.203C1220.86 646.286 1212.31 717.97 1213.09 782.329C1213.9 848.054 1220.14 916.637 1184.07 969.369C1143.11 1029.23 1079.98 1065.18 1012.12 1076.1C931.635 1089.04 845.032 1088.19 780.492 1034.3C708.761 974.4 655.463 880.554 660.305 782.329C664.998 687.14 728.457 604.197 804.069 556.011C866.278 516.368 940.442 549.693 1012.12 558.129Z" fill="#5EA3A6"/>
</g>
<g filter="url(#filter3_f_46_234)">
<path fill-rule="evenodd" clip-rule="evenodd" d="M1117.57 -44.8384C1200.24 -40.3435 1235.44 58.2678 1290.05 120.494C1338.61 175.819 1402.07 220.346 1414.05 292.976C1427.97 377.422 1413.43 468.214 1358.15 533.552C1298.96 603.516 1207.5 661.043 1117.57 643.402C1033.06 626.825 1016.77 515.566 955.898 454.649C895.066 393.776 774.802 378.713 767.381 292.976C759.945 207.076 863.202 160.52 925.255 100.66C985.398 42.6427 1034.13 -49.3752 1117.57 -44.8384Z" fill="#793E71"/>
</g>
<g filter="url(#filter4_f_46_234)">
<path fill-rule="evenodd" clip-rule="evenodd" d="M779.094 219.501C866.621 213.85 976.26 185.482 1029.7 255.03C1083.01 324.406 1023.4 421.627 998.961 505.637C983.444 558.988 954.848 602.85 916.765 643.308C876.914 685.644 835.968 727.144 779.094 739.217C706.899 754.543 621.183 767.859 567.219 717.511C512.659 666.606 530.179 580.243 528.739 505.637C527.253 428.631 508.165 343.39 558.882 285.425C611.333 225.477 699.605 224.632 779.094 219.501Z" fill="#FEFF94"/>
</g>
<g filter="url(#filter5_f_46_234)">
<path fill-rule="evenodd" clip-rule="evenodd" d="M924.992 811.737C999.724 816.244 1070.92 826.281 1134 867.043C1219.17 922.084 1321.24 977.466 1337.53 1078.32C1355.13 1187.27 1304.46 1307.94 1215.58 1372.08C1133.62 1431.22 1024.77 1389.82 924.992 1376.02C845.114 1364.97 765.748 1354.19 704.364 1301.35C637.433 1243.74 582.014 1167.14 579.146 1078.32C576.206 987.266 617.807 895.48 689.473 840.239C754.834 789.857 842.943 806.79 924.992 811.737Z" fill="#9995E5"/>
</g>
<g filter="url(#filter6_f_46_234)">
<path fill-rule="evenodd" clip-rule="evenodd" d="M215.699 -35.6971C286.755 -36.4164 361.998 -49.1227 418.63 -6.20259C481.574 41.5004 515.469 118.054 522.382 196.728C529.979 283.203 513.76 372.453 457.725 438.754C397.215 510.347 309.342 563.828 215.699 559.59C124.784 555.475 59.3938 481.736 -5.36627 417.794C-70.7513 353.235 -156.655 288.487 -151.803 196.728C-147.033 106.502 -59.5265 46.1596 16.8357 -2.13535C75.8997 -39.4901 145.818 -34.9897 215.699 -35.6971Z" fill="#E471A7"/>
</g>
<g filter="url(#filter7_f_46_234)">
<path fill-rule="evenodd" clip-rule="evenodd" d="M874.571 647.162C957.242 651.656 992.441 750.268 1047.05 812.494C1095.61 867.819 1159.07 912.346 1171.05 984.976C1184.97 1069.42 1170.43 1160.21 1115.15 1225.55C1055.96 1295.52 964.502 1353.04 874.571 1335.4C790.061 1318.83 773.774 1207.57 712.898 1146.65C652.066 1085.78 531.802 1070.71 524.381 984.976C516.945 899.076 620.202 852.52 682.255 792.66C742.398 734.643 791.129 642.625 874.571 647.162Z" fill="#793E71"/>
</g>
</g>
<defs>
<filter id="filter0_f_46_234" x="-513" y="-2" width="1801" height="1737" filterUnits="userSpaceOnUse" color-interpolation-filters="sRGB">
<feFlood flood-opacity="0" result="BackgroundImageFix"/>
<feBlend mode="normal" in="SourceGraphic" in2="BackgroundImageFix" result="shape"/>
<feGaussianBlur stdDeviation="250" result="effect1_foregroundBlur_46_234"/>
</filter>
<filter id="filter1_f_46_234" x="-652" y="326" width="1645.71" height="1556.64" filterUnits="userSpaceOnUse" color-interpolation-filters="sRGB">
<feFlood flood-opacity="0" result="BackgroundImageFix"/>
<feBlend mode="normal" in="SourceGraphic" in2="BackgroundImageFix" result="shape"/>
<feGaussianBlur stdDeviation="250" result="effect1_foregroundBlur_46_234"/>
</filter>
<filter id="filter2_f_46_234" x="160" y="37" width="1554" height="1546" filterUnits="userSpaceOnUse" color-interpolation-filters="sRGB">
<feFlood flood-opacity="0" result="BackgroundImageFix"/>
<feBlend mode="normal" in="SourceGraphic" in2="BackgroundImageFix" result="shape"/>
<feGaussianBlur stdDeviation="250" result="effect1_foregroundBlur_46_234"/>
</filter>
<filter id="filter3_f_46_234" x="267" y="-545" width="1651.99" height="1691.62" filterUnits="userSpaceOnUse" color-interpolation-filters="sRGB">
<feFlood flood-opacity="0" result="BackgroundImageFix"/>
<feBlend mode="normal" in="SourceGraphic" in2="BackgroundImageFix" result="shape"/>
<feGaussianBlur stdDeviation="250" result="effect1_foregroundBlur_46_234"/>
</filter>
<filter id="filter4_f_46_234" x="24" y="-291" width="1527.2" height="1544.09" filterUnits="userSpaceOnUse" color-interpolation-filters="sRGB">
<feFlood flood-opacity="0" result="BackgroundImageFix"/>
<feBlend mode="normal" in="SourceGraphic" in2="BackgroundImageFix" result="shape"/>
<feGaussianBlur stdDeviation="250" result="effect1_foregroundBlur_46_234"/>
</filter>
<filter id="filter5_f_46_234" x="79" y="305" width="1762" height="1598" filterUnits="userSpaceOnUse" color-interpolation-filters="sRGB">
<feFlood flood-opacity="0" result="BackgroundImageFix"/>
<feBlend mode="normal" in="SourceGraphic" in2="BackgroundImageFix" result="shape"/>
<feGaussianBlur stdDeviation="250" result="effect1_foregroundBlur_46_234"/>
</filter>
<filter id="filter6_f_46_234" x="-652" y="-538" width="1676.14" height="1597.83" filterUnits="userSpaceOnUse" color-interpolation-filters="sRGB">
<feFlood flood-opacity="0" result="BackgroundImageFix"/>
<feBlend mode="normal" in="SourceGraphic" in2="BackgroundImageFix" result="shape"/>
<feGaussianBlur stdDeviation="250" result="effect1_foregroundBlur_46_234"/>
</filter>
<filter id="filter7_f_46_234" x="24" y="147" width="1651.99" height="1691.62" filterUnits="userSpaceOnUse" color-interpolation-filters="sRGB">
<feFlood flood-opacity="0" result="BackgroundImageFix"/>
<feBlend mode="normal" in="SourceGraphic" in2="BackgroundImageFix" result="shape"/>
<feGaussianBlur stdDeviation="250" result="effect1_foregroundBlur_46_234"/>
</filter>
<clipPath id="clip0_46_234">
<rect width="1515" height="1588" fill="white" transform="translate(-60)"/>
</clipPath>
</defs>
</svg>
